<svg xmlns="http://www.w3.org/2000/svg" width="20" height="20" version="1.0" viewBox="0 0 512 512" fill="#fff"><path d="M1 25.4c0 .3 43.2 57 96.1 126.1 52.8 69.1 95.8 126.2 95.6 126.8-.3.7-40.7 47.1-89.9 103.3-49.1 56.1-89.9 102.8-90.7 103.7-1.3 1.6 1.2 1.7 37.8 1.7H89l70.2-80.4c38.7-44.3 70.5-80.5 70.8-80.5.3-.1 28.2 36.1 62 80.4l61.5 80.4 78.8.1c43.3 0 78.7-.2 78.7-.5 0-.2-45.2-60.2-100.4-133.2L310.1 220.5l2.8-3c1.6-1.7 39.2-44.6 83.6-95.5 44.4-50.9 81.7-93.5 82.8-94.8l2-2.2-39.4.1h-39.4l-64 73.4c-35.2 40.4-64.2 73.4-64.5 73.5-.3 0-25.5-33.1-56-73.5l-55.5-73.4-80.7-.1c-44.5 0-80.8.2-80.8.4zm277 228.2c76.7 101.5 139.7 185 139.8 185.5.2.5-8.3.9-21.1.9h-21.4L234.4 255.8C156.9 154.5 93.1 71 92.7 70.3c-.7-1.1 3.5-1.3 22.5-1.3l23.3.1L278 253.6z"/></svg>
