<?xml version="1.0" standalone="no"?><svg xmlns="http://www.w3.org/2000/svg" width="130" height="44" version="1.0" viewBox="-30 550 2650 10" fill="#fff">
<path d="M424 149.4c-8.1 2.4-10 3.5-15.4 8.6-7.6 7.2-10 12.5-10.4 23.2-.5 11.7 1.3 17.1 8.3 24.7 4.7 5 10.2 8.7 15.8 10.5 1.6.5 1.7 5.1 1.8 77.3.1 114.6.5 139 3 156.3 2.4 17.2 3.4 21.9 4.8 23.3 1.9 1.9 4.3-1.6 5.3-7.5.4-2.9 1.6-9.8 2.5-15.3 1.5-8.8 1.8-23.3 2.3-121.4l.5-111.4 6.5-3.3c8-4.1 15-11.5 17.9-19.1 2.5-6.6 2.8-16.9.6-23.4-3.1-9.1-13.5-19.4-22.3-21.9-6.1-1.8-16.3-2.1-21.2-.6zM292.5 181.9c-9.7 1.6-19.9 9.8-24.6 19.6-2.5 5.2-2.9 7.2-2.9 14.6 0 7.6.4 9.3 3 14.6 3.7 7.4 10.2 13.6 17.7 17 5 2.2 6.7 2.4 14.7 2 5-.3 10.5-.8 12.3-1.2 3-.7 3.9-.1 15.4 10.1 16.5 14.7 20 19.5 22.1 31.4.8 4.6.6 7.1-.6 12-2 7.8-5.4 12.5-16.2 22.4-15.7 14.4-20.7 24-18.4 35 1.5 7.5 5.5 13.5 28.5 43.1 27.5 35.3 47.8 61.7 53.8 69.7 2.7 3.8 5.5 6.8 6.3 6.8.7 0 1.8-1.9 2.5-4.3.6-2.3 1.5-5.5 2-7.1 1.6-5 1.1-6.2-6.3-15.4-4-5-10.2-12.8-13.7-17.4-3.6-4.6-10.4-13.3-15.1-19.3-24.2-30.8-39.9-51.4-41.4-54.3-4-7.8-1.1-13.7 13.4-27.1 5.6-5.2 11.7-11.7 13.6-14.5 3.6-5.5 7.4-18.2 7.4-25.1 0-5.9-3.5-18.7-6.7-24.8-2.9-5.3-15.2-18.4-25.6-27.3l-5.8-5 3-6.4c2.7-5.7 3.1-7.6 3.1-15 0-7.3-.4-9.3-2.9-14.5-6.9-14.4-22.5-22.4-38.6-19.6zM561 181.9c-10.6 1.6-20.4 9-25.6 19.3-2.4 4.6-2.7 6.5-2.8 14.3 0 7.8.4 9.8 2.7 14.6 1.5 3.1 2.7 5.9 2.7 6.3 0 .4-6.4 7.1-14.3 14.9-15.1 14.9-18.2 19.5-21.2 30.8-1.8 6.5-1.9 15.9-.4 23.1 2.2 10.4 5.6 15.5 19.1 28.8 12.4 12.3 15.8 16.8 15.8 21 0 3.7-3.4 9.3-13.5 22.1-5.5 6.9-15.8 20.1-23 29.5-7.1 9.3-19.8 25.6-28.2 36.2l-15.1 19.3 2.1 8.2c1.5 5.4 2.7 8.3 3.7 8.5 1 .2 3.6-2.5 6.8-7 2.8-4 11.3-15.2 18.8-24.8 65.6-84.3 64.2-82.2 63.1-94.1-.8-9.5-3.8-14.1-17.8-27.9-15.8-15.6-17.3-18.3-17.3-30.5 0-7.7.3-9.8 2.7-14.6 2.8-5.8 10.7-14.2 24.6-26l7.3-6.3 4.4 1.2c7.1 1.9 18.5 1.5 24.8-.9 6.7-2.5 15.2-10.5 18.6-17.5 2-4.1 2.4-6.4 2.4-14.4 0-11.4-2.1-16.8-9.6-24.3-7.9-7.9-19.3-11.5-30.8-9.8zM170.5 260.3c-6.5 2.2-9.7 4.3-14.6 9.4-7.8 8-9.4 12.1-9.4 23.8 0 8.9.3 10.5 2.7 15 3.5 6.7 9.9 12.9 16.7 16.2 6.7 3.3 17.9 4.3 24.5 2.2 4.3-1.4 13.9-7 15-8.8 1.2-1.9 4.3-1.3 18.4 3.4 16.7 5.6 24.1 9.5 29.4 15.4 6.4 7.2 8.3 12.2 8.3 22.1 0 8.2-.2 8.9-6.1 22.6-6.9 15.7-8.9 23.4-7.9 29.7 2.1 12.3 7.3 17.3 32.6 31.6 10.1 5.7 20.9 11.9 23.9 13.6 3 1.8 7.8 4.5 10.5 6 8.4 4.6 19.1 10.7 38.8 21.8 10.4 5.9 19.3 10.7 19.8 10.7s.6-1.2.3-2.8c-.2-1.5-1-5.8-1.7-9.6-1.2-7-1.2-7-6.2-9.6-2.8-1.5-12.2-6.7-21-11.7-8.8-4.9-18.2-10.2-21-11.8-2.7-1.5-9.5-5.3-15-8.5s-12.2-7-15-8.5c-27.8-15.3-29.5-16.6-30.2-24.2-.4-4 .2-6.3 3.7-14.3 8.4-18.9 10-23.2 10.6-29.3 1.4-14.6-4.2-29.5-15.3-40.6-7.9-7.8-13.9-11.1-33.3-17.9l-13.4-4.7-.1-8.6c-.1-7.2-.6-9.6-2.9-14.2-3.1-6.5-10.4-13.4-17.3-16.7-6-2.8-18.8-3.7-24.8-1.7zM674.1 260.9c-6.6 2.5-8.5 3.7-13.7 9-6.3 6.3-8.6 11.9-9.2 22.8l-.5 9.2-12.5 4.2c-22.6 7.5-32.9 14.1-41 26.4-6.1 9.2-7.6 14.7-7.6 27.5 0 11.4 0 11.5 4.3 21 8.2 18 9.4 21.5 9.5 26.1 0 8.3-1.3 9.4-29.4 25.1-8 4.4-19.4 10.9-25.5 14.3-6 3.3-13.7 7.6-17 9.4-3.3 1.9-6.4 3.7-7 4.1-.5.4-3.5 2.1-6.5 3.7-18.3 9.9-21.2 11.7-22 13.8-1.1 2.8-3.1 16.8-2.5 17.4.4.3 10.3-5.2 71-39.4 10.5-5.9 23.9-13.5 29.9-16.9 17.5-9.8 22.8-15.7 24.6-27 1-6.7-1.2-15.6-7.8-30.1-2.7-6.1-5.5-13.3-6.1-16.1-3.1-13 4.8-28.7 18.3-36.3 5.1-2.9 31.9-12.1 35.1-12.1.9 0 3.5 1.6 5.8 3.5 11 9.4 28.8 10.1 41.1 1.6 5.8-4.1 9-7.8 12.2-14.1 2.5-4.8 2.8-6.6 2.8-14.5s-.4-9.7-2.9-14.8c-3.3-6.7-10.2-13.4-17.2-16.7-6.8-3.3-18.9-3.8-26.2-1.1zM1050 329.6c-26.4 2.6-50 10.4-67.3 22.1-20.6 14.1-36.6 36.7-42.8 60.3-3.3 13-3.8 38.8-1 52.8 4.7 22.9 14.8 38.9 33.7 53.4 18.3 14.1 36.7 22.6 78.4 36.2 42.4 13.9 50.4 16.8 60.8 21.7 27.3 12.8 42.2 29.2 46.8 51.5 2.3 10.8 1.5 29.3-1.6 38.4-5.5 16.6-18.5 30.8-35.5 39-14.6 7.1-23.5 9-44 9.7-19.5.6-29.6-.7-45.3-5.9-31.8-10.5-54.8-40.4-56.9-74.1l-.6-8.7H922l.6 8.2c2.5 33.8 13.5 59.6 34.7 81.1 27.3 27.7 66.1 41.7 115.2 41.7 39.2 0 69.9-8.7 94-26.7 36.6-27.3 51.8-69.4 42.4-116.8-3.9-19.2-12.5-35.3-26.4-49-9.5-9.4-18.1-15.4-33.9-23.6-19.6-10.2-31.1-14.7-73.6-29.1-29.2-9.8-41.3-14.4-50.1-19-23.6-12.1-32.8-23.4-36-44.1-3.8-24.2 4.9-48 22.5-61.4 14.3-10.8 29.4-15.3 51.7-15.3 15.2 0 22.2.9 32.6 4 27.1 8.2 46.4 32 50.1 61.6l.7 5.9 25.8.3 25.7.2v-3.9c0-12.8-4.8-31.8-11.5-45.6-16.1-33.2-48-55.7-89.5-63.1-8.4-1.5-38.2-2.6-47-1.8zM83.8 385.1C73.1 386.3 61 396 57 406.6c-3.2 8.6-2.8 18.9 1 26.9 9.1 19 32.5 26 50 15 5.1-3.2 11.5-10.5 13.8-15.9 1.2-2.5 2.4-4.6 2.9-4.6.4 0 6.6-.7 13.8-1.6 23.4-2.9 34.3-.7 44 9 7.7 7.7 8.8 11.6 9.6 32.1.8 20.1 2 25.9 7.2 32.7 4 5.4 12.1 9.5 20.8 10.8 6.1.9 14.5 1.6 71.4 6 41.1 3.2 60.8 4.9 64.1 5.6 2 .4 3.4.2 3.9-.5.7-1.2-6.2-12.6-9.3-15.4-1.3-1.1-6.1-1.8-19.2-2.6-18.7-1.2-48-3.4-67.5-5.1-6.6-.6-18.5-1.5-26.5-2-16.3-1.1-20.2-1.9-23.7-5.2-4.5-4.2-5.3-7.9-5.3-23.7 0-22.9-3.1-32.2-14.5-43.6-6.9-7-17.9-12.9-27.1-14.6-3.9-.8-10.4-.9-19.4-.3-7.4.4-15.7.8-18.4.8l-4.9.1-1.6-4.4c-2.1-5.9-10.2-14.6-16.5-17.8-5.8-3-13.6-4.1-21.8-3.2zM764.7 386.5c-8.9 3.4-17.7 12.3-20.9 21.3l-1.3 3.4-6.5-.6c-15.1-1.5-29.7-1.8-35.5-.7-9.7 1.8-19.8 7.2-26.9 14.3-11.9 12-14.6 19.6-14.6 41.4 0 20.4-2.6 27.1-11.1 29.4-2.1.6-10.2 1.5-18.1 2-7.9.5-19.5 1.4-25.8 2-17.5 1.5-49.6 3.9-68 5-9.1.6-17.2 1.3-18.1 1.6-2.4.7-11.2 14.3-10.5 16.1.5 1.2 1.4 1.4 3.9.9 3.4-.7 22.6-2.4 64.2-5.6 74.8-5.7 78.5-6.2 85.8-11.2 10.1-6.8 13.7-18.6 13.7-44.9 0-9.8.2-11 3-16.7 5.8-11.4 16.5-18.2 30-19 5.9-.3 33.8 2.2 34.6 3.1.1.1 1.3 2.4 2.7 5.2 4 7.9 9.1 13.1 16.5 16.7 6 2.9 7.6 3.3 15.2 3.3 7.1 0 9.4-.4 14-2.6 8.2-3.9 13.5-9 17.2-16.7 3-6 3.3-7.6 3.3-15.2s-.3-9.2-3.3-15.2c-3.6-7.3-8.7-12.4-16.1-16-5.8-2.9-21.4-3.6-27.4-1.3zM2113 449.7c-37.5 1.3-69 14.1-94.3 38.3-20.3 19.4-34.3 45.5-40.6 75.6-8.3 39.7-3.6 84.4 12.2 115.9 19.7 39.5 52.7 65.1 96 74.6 13.5 3 41.5 3.7 56.5 1.5 34.4-5.1 61.7-20.6 82.3-46.7 9.9-12.5 19.2-29.9 23.4-43.7l.6-2.2h-49.2l-1.9 4.4c-6.4 15.1-20.9 30.3-36.1 37.9-14.7 7.4-22.2 9-42.4 9.1-18.7.1-23-.7-38-6.8-18.1-7.3-34.6-22.5-45.4-41.8-6-10.6-10.8-27.8-12.5-45.1l-.6-5.7h234l.1-13.3c.4-38.7-2.4-53.4-14.6-78.2-10.6-21.6-25.3-38.5-44.5-51.4-24.2-16.2-52-23.5-85-22.4zm32.5 45.3c8.5 2.3 20.5 7.9 27.8 12.8 7.8 5.4 20 19.3 24.5 27.9 5 9.6 9 23.2 9.9 33l.6 7.3h-92.2c-77.9 0-92.1-.2-92.1-1.4 0-3.6 3.4-18.6 5.7-24.9 5.2-14.9 13.5-26.5 25.8-36.4 9.5-7.7 24.9-15.4 36-18.2 4.4-1.1 8.9-2.2 10-2.5 1.1-.3 9.7-.3 19-.1 13.6.2 18.6.7 25 2.5zM1382.1 452c-11.8 2.4-20.7 5.3-29.6 9.8-8 4-35 22.8-44.2 30.9-3.7 3.2-6.3 4.9-6.3 4 0-2-2.9-31.3-3.5-36.5l-.6-4.2-22.2.2-22.2.3v424h49l.5-84.9.5-84.9 6 5.2c11.4 10 29.6 23.1 37.6 27.1 9.5 4.8 22.2 9.2 33.9 11.7 13.1 2.8 47.7 2.5 61.6-.5 65.4-14.2 107.6-65.6 112.4-136.9 5.8-86-43.1-154.2-119-165.8-13.8-2.2-41.9-1.9-53.9.5zm41.2 42.5c41.7 7.3 72.5 40.1 80.1 85.4 2.1 12.3 2.1 34.9 0 47.2-5.5 32.7-24.2 60.5-50.7 75.3-8.2 4.6-22.2 9.2-32.6 10.7-10.2 1.4-30.8.6-39.9-1.6-37.1-9-65-39.1-73.1-79.2-11-54 8.7-104.8 49.9-128.1 7.1-3.9 21.6-8.8 30-10 10.2-1.5 26.9-1.3 36.3.3zM2378.2 451.1c-22.4 2.9-42.8 12.1-57.5 25.9-17.3 16.2-25.7 35.7-25.7 59.5 0 23.3 7.9 39 26.6 53.1 16.8 12.6 38.2 20.6 82.7 30.9 49.8 11.5 61.7 18.6 65.7 39.3 5.2 26.4-10.8 48-39.9 53.8-11.5 2.3-35.2 1.5-46.4-1.5-23.7-6.3-42.8-24.4-49.8-47.4l-2.1-6.7H2307c-13.7 0-25.1.4-25.4.8-.9 1.5 4.1 21.3 7.3 29.1 14.8 36.2 49.7 61 95.3 67.7 15.4 2.2 44.9 1.5 59.1-1.6 19.3-4.1 34.2-11 48.2-22.3 21.6-17.5 31.7-41.1 30.2-70.7-1.1-20.2-6.2-33.5-17.3-45-16.2-16.9-35.3-25.2-85.9-37.5-32.6-8-54.1-16.1-63-23.8-2.2-1.9-5.4-5.9-7-8.8-2.7-4.9-3-6.3-3-14.4.1-11.2 2.9-18.1 10.5-25.5 10.1-9.8 23.3-14 44.6-14 21.8 0 36.5 5 47.8 16.4 7.3 7.3 11 13.9 13.5 23.8l1.9 7.3 24.1.3 24.1.2v-3.4c0-4.8-4.4-21.5-7.6-28.8-13.3-30.4-41.7-50.8-78.4-56.3-10.2-1.6-37.1-1.8-47.8-.4zM1714 602.5V750h50l.2-75.7.3-75.7 66.4 75.3c36.4 41.4 66.8 75.4 67.5 75.7.6.2 14.9.3 31.8.2l30.7-.3-67-73.5c-36.9-40.4-69.8-76.5-73-80.2l-6-6.7 64.5-65.8c35.5-36.2 64.6-66.1 64.6-66.6 0-.4-13.4-.7-29.8-.7h-29.8l-59.9 61.9-60 61.8-.3-62.3-.2-62.4h-50v147.5zM1604.7 456.6c-.4.4-.7 66.6-.7 147.1V750h50l-.2-146.8-.3-146.7-24.1-.3c-13.2-.1-24.3.1-24.7.4zM426.5 484.6c-16.4 2.2-27.7 7.7-39.1 18.9-13.4 13.3-19.7 27.4-19.8 44.5 0 5.2.5 12 1.3 15 2.4 9.7 8.9 20.8 17.2 29.5 8.7 9.1 15.5 13.5 26.1 17.2 6.4 2.2 9 2.5 20.8 2.6 12.1 0 14.3-.3 21.3-2.7 26.3-9 44.7-33.8 44.7-60.3 0-18.8-5.3-30.9-19.9-45.4-10.2-10.2-17-14.3-28.2-17.2-5.9-1.6-19.6-2.7-24.4-2.1zM49.5 514.8c-7.3 3.1-10.1 5-14.4 9.7-7 7.6-8.6 12.2-8.6 24.5 0 9.6.2 11 2.8 15.8 3.6 6.8 9.9 13.1 16.2 16.3 3.9 1.9 6.9 2.5 14.2 2.7 8.5.4 9.6.2 15.5-2.6 7.5-3.7 13.8-9.8 17.7-17.3l2.8-5.4 108.9-.6c84.9-.4 110.6-.8 116.4-1.9 16.5-2.9 30.4-6 31.3-6.9 1.1-1.1-2.8-2.3-13.8-4.6-22.2-4.5-39.1-5-161.4-5.3-44.7-.2-81.7-.5-82.1-.7-.4-.3-1-1.7-1.4-3.2-1.5-7.1-12-17.1-21.4-20.5-6.2-2.2-17.5-2.2-22.7 0zM794.5 514.8c-10.2 4.3-17 10.5-20.5 18.5-1.2 2.7-2.7 5-3.3 5.2-.7.2-48.4.6-106.2.9-111.2.6-115.4.8-138.6 5.6-5.7 1.2-10.8 2.6-11.3 3-1.3 1.3 2.5 2.5 15.5 5 6.3 1.1 13.9 2.6 16.9 3.2 3.8.8 38.2 1.3 113 1.5 59.1.2 108.4.5 109.5.8 1.4.3 2.9 2.3 4.3 5.5 2.8 6.4 10.1 13.8 16.7 17 3.9 2 6.9 2.6 14.1 2.8 8.3.4 9.6.1 15.5-2.6 29-13.2 27.4-54.9-2.6-66.1-6.9-2.6-17.3-2.7-23-.3zM344.5 576c-7.5.9-28.2 2.5-49 4-7.1.5-21.3 1.6-31.5 2.5-10.2.8-24.5 2-31.8 2.6-20.7 1.6-28.4 4.8-34.1 13.8-4.4 6.9-5.2 10.9-6 30.6-.6 15.1-1.1 18.8-2.8 22.7-4.6 10.2-15.2 17.9-27.4 19.9-4.4.7-9.7.6-19.7-.6-18.8-2.1-17.7-1.7-21.1-8.4-3.8-7.4-11.4-14.3-18.9-17.1-4.6-1.8-7.3-2.1-14.2-1.8-10.4.5-16.2 2.9-22.9 9.6-7 7-9.5 12.9-9.9 23.4-.4 7.7-.1 9.3 2.3 14.7 3.3 7.2 11.2 15.1 18.2 18.3 7.4 3.3 20.9 3.1 28.5-.4 7.4-3.4 13.9-10 17.5-17.8l2.8-6.1 4 .5c9.2 1.4 34.1 1.8 39.2.7 9.5-2 18.2-6.9 25.8-14.6 11.8-11.8 14.5-20 14.5-44 0-12.6.2-14.5 2.3-18.5 3.5-7.1 6.1-8 26.4-9.6 9.8-.7 23.8-1.8 31.1-2.4 7.2-.5 19.2-1.5 26.5-2 20.5-1.6 52-3.9 54-4 1.9 0 12-14.6 11.1-16.1-.6-1-4.8-1-14.9.1zM507 576.3c0 .7 2.1 4.5 4.8 8.3l4.7 6.9 6.5.7c3.6.3 13.5 1.2 22 1.8 31.9 2.3 41.8 3 54.5 4.1 7.2.5 20.7 1.6 30.2 2.3 27.6 2.1 28.3 2.9 29.4 31.6.4 10.2 1.1 19.9 1.7 21.6 4.9 15.3 19.6 28.7 36.2 33 5.3 1.4 9.3 1.6 22 1 8.5-.3 17.3-.9 19.5-1.2l4-.6 1.9 5.3c2.4 6.6 10.8 15.4 18.1 18.9 4.2 2 6.5 2.4 14.5 2.4 11.5 0 16.8-2.2 24.5-9.9 7.7-7.6 9.9-13.1 10-24 0-7.8-.4-9.7-2.7-14.5-3.5-7.1-9.7-13.3-16.7-16.8-4.9-2.4-6.8-2.7-15.1-2.7-8.2 0-10.3.4-15 2.6-6.7 3.2-13 9.4-16.7 16.6-1.7 3.2-3.6 5.5-4.8 5.8-1.1.2-8.3 1.2-15.9 2-20.7 2.4-30.8.1-40.3-9.5-7.5-7.4-8.6-11.2-9.5-30.4-.8-19.2-1.8-25.3-5.2-31.1-6.6-11.1-15-14.3-41.6-16-5.2-.4-17.1-1.3-26.5-2.1-9.3-.8-22.8-1.9-30-2.4-28.1-2-42.4-3.2-50.6-4.1-11.5-1.2-13.9-1.2-13.9.4zM369.5 603.9c-1.6 1-12.2 7-23.5 13.3-92.4 52-89.7 50.4-94.6 57.7-3.4 5.2-4.8 13.8-3.4 20.9.7 3.1 3.9 12 7.3 19.7 5.1 11.7 6.1 15.1 6.5 21 .5 9.4-2.2 16.6-9 24.1-6.3 6.8-10.8 9.1-29.9 15.5l-15 4.9-4.2-3.3c-18.3-14.6-43.9-9.4-54.3 11-2.6 5.2-2.9 6.7-2.9 15.3 0 8 .4 10.3 2.5 14.5 3.3 6.7 10.3 13.5 17.2 16.8 4.8 2.3 7 2.7 14.5 2.7 7.6 0 9.6-.4 14.8-2.9 7.6-3.6 13.5-9.3 17-16.6 2.4-4.8 2.9-7.1 3-14.3l.1-8.6 12.4-4.1c6.9-2.4 15-5.4 18-6.8 17-7.9 28.5-22.7 31.2-40 1.5-10 .1-18-5.2-29.9-7.8-17.2-9-20.3-9-24.1 0-7.7 3.2-11.1 18.5-19.2 5-2.6 14.6-8.1 21.5-12 6.9-4 16.8-9.6 22-12.5 13.7-7.6 18-10 32.5-18.2l13-7.4 1.1-5.5c1.6-8.3 2.3-13.9 1.6-13.9-.4 0-2 .9-3.7 1.9zM493.5 606.2c2.4 15.8 2.4 15.7 7.9 18.5 2.8 1.4 12.1 6.5 20.6 11.3 8.5 4.8 18.2 10.2 21.4 12 3.3 1.8 9.8 5.5 14.5 8.3 4.8 2.7 14.6 8.2 21.9 12.3 21.5 11.9 23.8 14 23.6 22-.1 4.7-.8 6.9-7 20-5.5 11.9-7.4 18.4-7.4 25.9 0 14.6 4.8 26.3 15.1 36.6 7.6 7.7 14.4 11.3 33.3 17.9l13.1 4.5.7 9.3c.7 11.2 3.9 18.3 10.6 24.3 7.3 6.4 12.4 8.4 22.9 8.7 8.2.4 9.8.1 15-2.3 7.5-3.4 14.9-10.5 18.1-17.5 2-4.4 2.5-7.1 2.6-13.5 0-4.4-.6-9.8-1.3-12-4.8-14.1-21.4-24.7-36.4-23.1-7.1.7-14.9 4-20 8.5l-3.7 3.3-14.2-4.7c-28-9.2-36.5-16.3-39.8-33.2-1.6-7.9-.7-11.6 6.6-28.1 5.9-13.5 7.6-19.4 7.5-26.2-.2-9.8-4-16.6-12.9-22.8-5.5-3.8-30.1-18-66.7-38.4-9.3-5.3-23.5-13.2-31.4-17.7-7.8-4.4-14.5-8.1-14.8-8.1-.3 0-.2 1.9.2 4.2zM399.6 621.7c-2.4 3.9-11.5 15.7-51.9 67.7-12.7 16.4-25.1 32.8-27.4 36.3-7.1 10.9-7.7 20.9-1.8 30.8 1.2 2.2 7.6 9.2 14 15.5 6.4 6.3 12.7 13.3 14.1 15.6 5.3 9 5.2 21.4-.4 31.7-2.8 5.2-12.1 14.8-23.9 24.6-7 5.8-7.3 5.9-10.5 4.8-1.8-.6-7.3-1.2-12.3-1.2-7.7 0-9.8.4-14.8 2.7-7.1 3.4-13.6 9.9-17.1 17.1-3.7 7.9-3.8 20.4-.1 28 3.7 8 8.7 13.2 16.3 16.9 6 3 7.5 3.3 15.7 3.3 7.7 0 9.8-.4 14.7-2.7 7.2-3.4 13.7-9.8 17.1-17.1 2.3-4.7 2.7-6.9 2.7-14.4 0-7.8-.4-9.5-3-14.7l-3-5.8 14.8-14.7c16.7-16.5 19.2-20.4 22-34.7 1.4-7.2 1.4-9.5.4-15.7-2.3-13-5.7-18.5-20.2-32.6-19.3-18.9-19.5-20.5-4.2-39.8 4.2-5.4 14.5-18.5 22.7-29.2 21.7-28 33.2-42.8 39.9-51.1l5.9-7.2-1.2-5.7c-2.9-13.3-4.4-14.8-8.5-8.4zM461.6 618.8c-.2.4-1.3 4.2-2.4 8.4-2.3 9-3.8 5.9 12.8 26.9 6.3 8.1 16.5 21.1 22.6 29 43.4 55.8 42.4 54.5 42.4 59 0 4.9-4.2 10.6-15.5 21.2-6.3 6-12.7 12.9-14.2 15.4-5.9 10.1-7.8 24.7-4.7 36.6 3.3 12.7 9.9 21.9 25.8 35.6 5.3 4.6 9.6 9 9.6 9.7 0 .7-1.2 3.6-2.7 6.6-2.3 4.6-2.7 6.5-2.6 14.3 0 7.9.3 9.7 2.8 14.8 5.7 11.5 16.7 18.7 29.7 19.5 10.5.6 17.8-2.1 25.8-9.5 8.1-7.4 10.5-13.1 10.5-24.8 0-7.8-.4-9.7-2.8-14.7-3.6-7.3-11.9-15-19.2-17.7-6.7-2.5-17.3-2.8-23.5-.6-3.6 1.3-4.6 1.3-5.9.2-14.6-12.2-25.1-22.1-28.2-27-4.5-6.9-6.4-14.9-5.5-22.6 1.1-9.4 3.6-13.2 16.3-25.6 6.7-6.4 13.3-13.9 15.3-17.2 3.2-5.3 3.5-6.3 3.5-13.8 0-11.6 1.7-8.8-41-63.9-11-14.2-25.1-32.4-31.3-40.4-6.3-8.1-12-15.9-12.8-17.4-1.4-2.7-3.7-3.7-4.8-2zM431.3 625.2c-1 1.3-3.4 14.8-5.3 29.8-1.3 10.8-1.8 50.1-1.9 148.2-.1 73.4-.2 77.8-1.8 77.8-3 0-11.7 5.6-15.7 10-6.3 7-8.6 13.1-8.6 23.2 0 7.1.5 9.8 2.4 14.2 3.1 7 10.1 14 17.4 17.4 5 2.4 7 2.7 15.7 2.7 8.2 0 10.9-.4 14.7-2.2 7.3-3.3 14.6-10.8 18-18.2 2.7-5.9 3-7.2 2.6-15-.3-6.4-1-9.8-2.7-13.4-3.4-6.9-10.1-13.3-17.6-16.9l-6.5-3V772.6c0-89.6-.2-109.1-1.5-118.6-1.8-14-4.2-27.7-5-29-.9-1.4-3.1-1.2-4.2.2z"/>
</svg>
