<?xml version="1.0" standalone="no"?>
<svg xmlns="http://www.w3.org/2000/svg" width="130pt" height="44pt" version="1.0" viewBox="-30 550 2650 10">
<linearGradient id="a" gradientTransform="rotate(10)">
<stop offset="0%" stop-color="#fcb322"/><stop offset="25%" stop-color="#fcb322"/>
<stop offset="50%" stop-color="#fc745c"/>
<stop offset="100%" stop-color="#fc8c4c"/>
</linearGradient>
<g fill="url(#a)" transform="matrix(.1 0 0 -.1 0 1440)">
<path d="M4240 12906c-81-24-100-35-154-86-76-72-100-125-104-232-5-117 13-171 83-247 47-50 102-87 158-105 16-5 17-51 18-773 1-1146 5-1390 30-1563 24-172 34-219 48-233 19-19 43 16 53 75 4 29 16 98 25 153 15 88 18 233 23 1214l5 1114 65 33c80 41 150 115 179 191 25 66 28 169 6 234-31 91-135 194-223 219-61 18-163 21-212 6zM2925 12581c-97-16-199-98-246-196-25-52-29-72-29-146 0-76 4-93 30-146 37-74 102-136 177-170 50-22 67-24 147-20 50 3 105 8 123 12 30 7 39 1 154-101 165-147 200-195 221-314 8-46 6-71-6-120-20-78-54-125-162-224-157-144-207-240-184-350 15-75 55-135 285-431 275-353 478-617 538-697 27-38 55-68 63-68 7 0 18 19 25 43 6 23 15 55 20 71 16 50 11 62-63 154-40 50-102 128-137 174-36 46-104 133-151 193-242 308-399 514-414 543-40 78-11 137 134 271 56 52 117 117 136 145 36 55 74 182 74 251 0 59-35 187-67 248-29 53-152 184-256 273l-58 50 30 64c27 57 31 76 31 150 0 73-4 93-29 145-69 144-225 224-386 196zM5610 12581c-106-16-204-90-256-193-24-46-27-65-28-143 0-78 4-98 27-146 15-31 27-59 27-63s-64-71-143-149c-151-149-182-195-212-308-18-65-19-159-4-231 22-104 56-155 191-288 124-123 158-168 158-210 0-37-34-93-135-221-55-69-158-201-230-295-71-93-198-256-282-362l-151-193 21-82c15-54 27-83 37-85s36 25 68 70c28 40 113 152 188 248 656 843 642 822 631 941-8 95-38 141-178 279-158 156-173 183-173 305 0 77 3 98 27 146 28 58 107 142 246 260l73 63 44-12c71-19 185-15 248 9 67 25 152 105 186 175 20 41 24 64 24 144 0 114-21 168-96 243-79 79-193 115-308 98zM1705 11797c-65-22-97-43-146-94-78-80-94-121-94-238 0-89 3-105 27-150 35-67 99-129 167-162 67-33 179-43 245-22 43 14 139 70 150 88 12 19 43 13 184-34 167-56 241-95 294-154 64-72 83-122 83-221 0-82-2-89-61-226-69-157-89-234-79-297 21-123 73-173 326-316 101-57 209-119 239-136 30-18 78-45 105-60 84-46 191-107 388-218 104-59 193-107 198-107s6 12 3 28c-2 15-10 58-17 96-12 70-12 70-62 96-28 15-122 67-210 117-88 49-182 102-210 118-27 15-95 53-150 85s-122 70-150 85c-278 153-295 166-302 242-4 40 2 63 37 143 84 189 100 232 106 293 14 146-42 295-153 406-79 78-139 111-333 179l-134 47-1 86c-1 72-6 96-29 142-31 65-104 134-173 167-60 28-188 37-248 17zM6741 11791c-66-25-85-37-137-90-63-63-86-119-92-228l-5-92-125-42c-226-75-329-141-410-264-61-92-76-147-76-275 0-114 0-115 43-210 82-180 94-215 95-261 0-83-13-94-294-251-80-44-194-109-255-143-60-33-137-76-170-94-33-19-64-37-70-41-5-4-35-21-65-37-183-99-212-117-220-138-11-28-31-168-25-174 4-3 103 52 710 394 105 59 239 135 299 169 175 98 228 157 246 270 10 67-12 156-78 301-27 61-55 133-61 161-31 130 48 287 183 363 51 29 319 121 351 121 9 0 35-16 58-35 110-94 288-101 411-16 58 41 90 78 122 141 25 48 28 66 28 145s-4 97-29 148c-33 67-102 134-172 167-68 33-189 38-262 11z"/>
<path fill="#000" d="M10500 11104c-264-26-500-104-673-221-206-141-366-367-428-603-33-130-38-388-10-528 47-229 148-389 337-534 183-141 367-226 784-362 424-139 504-168 608-217 273-128 422-292 468-515 23-108 15-293-16-384-55-166-185-308-355-390-146-71-235-90-440-97-195-6-296 7-453 59-318 105-548 404-569 741l-6 87h-527l6-82c25-338 135-596 347-811 273-277 661-417 1152-417 392 0 699 87 940 267 366 273 518 694 424 1168-39 192-125 353-264 490-95 94-181 154-339 236-196 102-311 147-736 291-292 98-413 144-501 190-236 121-328 234-360 441-38 242 49 480 225 614 143 108 294 153 517 153 152 0 222-9 326-40 271-82 464-320 501-616l7-59 258-3 257-2v39c0 128-48 318-115 456-161 332-480 557-895 631-84 15-382 26-470 18z"/>
<path d="M838 10549c-107-12-228-109-268-215-32-86-28-189 10-269 91-190 325-260 500-150 51 32 115 105 138 159 12 25 24 46 29 46 4 0 66 7 138 16 234 29 343 7 440-90 77-77 88-116 96-321 8-201 20-259 72-327 40-54 121-95 208-108 61-9 145-16 714-60 411-32 608-49 641-56 20-4 34-2 39 5 7 12-62 126-93 154-13 11-61 18-192 26-187 12-480 34-675 51-66 6-185 15-265 20-163 11-202 19-237 52-45 42-53 79-53 237 0 229-31 322-145 436-69 70-179 129-271 146-39 8-104 9-194 3-74-4-157-8-184-8l-49-1-16 44c-21 59-102 146-165 178-58 30-136 41-218 32zM7647 10535c-89-34-177-123-209-213l-13-34-65 6c-151 15-297 18-355 7-97-18-198-72-269-143-119-120-146-196-146-414 0-204-26-271-111-294-21-6-102-15-181-20s-195-14-258-20c-175-15-496-39-680-50-91-6-172-13-181-16-24-7-112-143-105-161 5-12 14-14 39-9 34 7 226 24 642 56 748 57 785 62 858 112 101 68 137 186 137 449 0 98 2 110 30 167 58 114 165 182 300 190 59 3 338-22 346-31 1-1 13-24 27-52 40-79 91-131 165-167 60-29 76-33 152-33 71 0 94 4 140 26 82 39 135 90 172 167 30 60 33 76 33 152s-3 92-33 152c-36 73-87 124-161 160-58 29-214 36-274 13z"/>
<path fill="#000" d="M21130 9903c-375-13-690-141-943-383-203-194-343-455-406-756-83-397-36-844 122-1159 197-395 527-651 960-746 135-30 415-37 565-15 344 51 617 206 823 467 99 125 192 299 234 437l6 22h-492l-19-44c-64-151-209-303-361-379-147-74-222-90-424-91-187-1-230 7-380 68-181 73-346 225-454 418-60 106-108 278-125 451l-6 57h2340l1 133c4 387-24 534-146 782-106 216-253 385-445 514-242 162-520 235-850 224zm325-453c85-23 205-79 278-128 78-54 200-193 245-279 50-96 90-232 99-330l6-73h-922c-779 0-921 2-921 14 0 36 34 186 57 249 52 149 135 265 258 364 95 77 249 154 360 182 44 11 89 22 100 25s97 3 190 1c136-2 186-7 250-25zM13821 9880c-118-24-207-53-296-98-80-40-350-228-442-309-37-32-63-49-63-40 0 20-29 313-35 365l-6 42-222-2-222-3V5595h490l5 849 5 849 60-52c114-100 296-231 376-271 95-48 222-92 339-117 131-28 477-25 616 5 654 142 1076 656 1124 1369 58 860-431 1542-1190 1658-138 22-419 19-539-5zm412-425c417-73 725-401 801-854 21-123 21-349 0-472-55-327-242-605-507-753-82-46-222-92-326-107-102-14-308-6-399 16-371 90-650 391-731 792-110 540 87 1048 499 1281 71 39 216 88 300 100 102 15 269 13 363-3zM23782 9889c-224-29-428-121-575-259-173-162-257-357-257-595 0-233 79-390 266-531 168-126 382-206 827-309 498-115 617-186 657-393 52-264-108-480-399-538-115-23-352-15-464 15-237 63-428 244-498 474l-21 67h-248c-137 0-251-4-254-8-9-15 41-213 73-291 148-362 497-610 953-677 154-22 449-15 591 16 193 41 342 110 482 223 216 175 317 411 302 707-11 202-62 335-173 450-162 169-353 252-859 375-326 80-541 161-630 238-22 19-54 59-70 88-27 49-30 63-30 144 1 112 29 181 105 255 101 98 233 140 446 140 218 0 365-50 478-164 73-73 110-139 135-238l19-73 241-3 241-2v34c0 48-44 215-76 288-133 304-417 508-784 563-102 16-371 18-478 4zM17140 8375V6900h500l2 757 3 757 664-753c364-414 668-754 675-757 6-2 149-3 318-2l307 3-670 735c-369 404-698 765-730 802l-60 67 645 658c355 362 646 661 646 666 0 4-134 7-298 7h-298l-599-619-600-618-3 623-2 624h-500V8375zM16047 9834c-4-4-7-666-7-1471V6900h500l-2 1468-3 1467-241 3c-132 1-243-1-247-4z"/>
<path d="M4265 9554c-164-22-277-77-391-189-134-133-197-274-198-445 0-52 5-120 13-150 24-97 89-208 172-295 87-91 155-135 261-172 64-22 90-25 208-26 121 0 143 3 213 27 263 90 447 338 447 603 0 188-53 309-199 454-102 102-170 143-282 172-59 16-196 27-244 21zM495 9252c-73-31-101-50-144-97-70-76-86-122-86-245 0-96 2-110 28-158 36-68 99-131 162-163 39-19 69-25 142-27 85-4 96-2 155 26 75 37 138 98 177 173l28 54 1089 6c849 4 1106 8 1164 19 165 29 304 60 313 69 11 11-28 23-138 46-222 45-391 50-1614 53-447 2-817 5-821 7-4 3-10 17-14 32-15 71-120 171-214 205-62 22-175 22-227 0zM7945 9252c-102-43-170-105-205-185-12-27-27-50-33-52-7-2-484-6-1062-9-1112-6-1154-8-1386-56-57-12-108-26-113-30-13-13 25-25 155-50 63-11 139-26 169-32 38-8 382-13 1130-15 591-2 1084-5 1095-8 14-3 29-23 43-55 28-64 101-138 167-170 39-20 69-26 141-28 83-4 96-1 155 26 290 132 274 549-26 661-69 26-173 27-230 3zM3445 8640c-75-9-282-25-490-40-71-5-213-16-315-25-102-8-245-20-318-26-207-16-284-48-341-138-44-69-52-109-60-306-6-151-11-188-28-227-46-102-152-179-274-199-44-7-97-6-197 6-188 21-177 17-211 84-38 74-114 143-189 171-46 18-73 21-142 18-104-5-162-29-229-96-70-70-95-129-99-234-4-77-1-93 23-147 33-72 112-151 182-183 74-33 209-31 285 4 74 34 139 100 175 178l28 61 40-5c92-14 341-18 392-7 95 20 182 69 258 146 118 118 145 200 145 440 0 126 2 145 23 185 35 71 61 80 264 96 98 7 238 18 311 24 72 5 192 15 265 20 205 16 520 39 540 40 19 0 120 146 111 161-6 10-48 10-149-1zM5070 8637c0-7 21-45 48-83l47-69 65-7c36-3 135-12 220-18 319-23 418-30 545-41 72-5 207-16 302-23 276-21 283-29 294-316 4-102 11-199 17-216 49-153 196-287 362-330 53-14 93-16 220-10 85 3 173 9 195 12l40 6 19-53c24-66 108-154 181-189 42-20 65-24 145-24 115 0 168 22 245 99 77 76 99 131 100 240 0 78-4 97-27 145-35 71-97 133-167 168-49 24-68 27-151 27-82 0-103-4-150-26-67-32-130-94-167-166-17-32-36-55-48-58-11-2-83-12-159-20-207-24-308-1-403 95-75 74-86 112-95 304-8 192-18 253-52 311-66 111-150 143-416 160-52 4-171 13-265 21-93 8-228 19-300 24-281 20-424 32-506 41-115 12-139 12-139-4zM3695 8361c-16-10-122-70-235-133-924-520-897-504-946-577-34-52-48-138-34-209 7-31 39-120 73-197 51-117 61-151 65-210 5-94-22-166-90-241-63-68-108-91-299-155l-150-49-42 33c-183 146-439 94-543-110-26-52-29-67-29-153 0-80 4-103 25-145 33-67 103-135 172-168 48-23 70-27 145-27 76 0 96 4 148 29 76 36 135 93 170 166 24 48 29 71 30 143l1 86 124 41c69 24 150 54 180 68 170 79 285 227 312 400 15 100 1 180-52 299-78 172-90 203-90 241 0 77 32 111 185 192 50 26 146 81 215 120 69 40 168 96 220 125 137 76 180 100 325 182l130 74 11 55c16 83 23 139 16 139-4 0-20-9-37-19zM4935 8338c24-158 24-157 79-185 28-14 121-65 206-113s182-102 214-120c33-18 98-55 145-83 48-27 146-82 219-123 215-119 238-140 236-220-1-47-8-69-70-200-55-119-74-184-74-259 0-146 48-263 151-366 76-77 144-113 333-179l131-45 7-93c7-112 39-183 106-243 73-64 124-84 229-87 82-4 98-1 150 23 75 34 149 105 181 175 20 44 25 71 26 135 0 44-6 98-13 120-48 141-214 247-364 231-71-7-149-40-200-85l-37-33-142 47c-280 92-365 163-398 332-16 79-7 116 66 281 59 135 76 194 75 262-2 98-40 166-129 228-55 38-301 180-667 384-93 53-235 132-314 177-78 44-145 81-148 81s-2-19 2-42zM3996 8183c-24-39-115-157-519-677-127-164-251-328-274-363-71-109-77-209-18-308 12-22 76-92 140-155s127-133 141-156c53-90 52-214-4-317-28-52-121-148-239-246-70-58-73-59-105-48-18 6-73 12-123 12-77 0-98-4-148-27-71-34-136-99-171-171-37-79-38-204-1-280 37-80 87-132 163-169 60-30 75-33 157-33 77 0 98 4 147 27 72 34 137 98 171 171 23 47 27 69 27 144 0 78-4 95-30 147l-30 58 148 147c167 165 192 204 220 347 14 72 14 95 4 157-23 130-57 185-202 326-193 189-195 205-42 398 42 54 145 185 227 292 217 280 332 428 399 511l59 72-12 57c-29 133-44 148-85 84zM4616 8212c-2-4-13-42-24-84-23-90-38-59 128-269 63-81 165-211 226-290 434-558 424-545 424-590 0-49-42-106-155-212-63-60-127-129-142-154-59-101-78-247-47-366 33-127 99-219 258-356 53-46 96-90 96-97s-12-36-27-66c-23-46-27-65-26-143 0-79 3-97 28-148 57-115 167-187 297-195 105-6 178 21 258 95 81 74 105 131 105 248 0 78-4 97-28 147-36 73-119 150-192 177-67 25-173 28-235 6-36-13-46-13-59-2-146 122-251 221-282 270-45 69-64 149-55 226 11 94 36 132 163 256 67 64 133 139 153 172 32 53 35 63 35 138 0 116 17 88-410 639-110 142-251 324-313 404-63 81-120 159-128 174-14 27-37 37-48 20zM4313 8148c-10-13-34-148-53-298-13-108-18-501-19-1482-1-734-2-778-18-778-30 0-117-56-157-100-63-70-86-131-86-232 0-71 5-98 24-142 31-70 101-140 174-174 50-24 70-27 157-27 82 0 109 4 147 22 73 33 146 108 180 182 27 59 30 72 26 150-3 64-10 98-27 134-34 69-101 133-176 169l-65 30v1072c0 896-2 1091-15 1186-18 140-42 277-50 290-9 14-31 12-42-2z"/>
</g></svg>
