<?xml version="1.0" standalone="no"?><svg xmlns="http://www.w3.org/2000/svg" width="102" height="57" version="1.0" viewBox="0 900 2560 1">
<path d="M242.5 380.6c-27.5 2.8-43.9 5.9-60.6 11.4-31 10.2-59.8 28.4-78.6 49.9-30.5 34.8-43.8 75.7-40.4 124.6 3.7 52.9 23.4 86.3 68.3 115.8 32.1 21 54.4 30 157.3 63 21.7 7 32.6 11.2 50 19.7 17.7 8.6 27.7 15.2 38.9 26 21.9 21 30.6 42.8 30.6 76.5 0 28.9-8.2 50.7-26.3 70.1-17.8 19-39.5 30.5-68.7 36.4-23.9 4.7-56.6 4.8-81.1 0-53-10.3-92.7-46.1-105.9-95.5-2.3-8.9-5-26.5-5-33.8V840H39.8l.7 10.2c3.2 52.6 19.6 92.1 52 125.7 17.6 18.2 34.7 30.5 58 41.7 25.4 12.2 52.5 19.6 86.5 23.5 15.4 1.7 57.6 1.5 73.9-.5 54.8-6.6 96-25.2 128.6-58.1 12.6-12.7 21.7-25.4 30-42 15.7-31.5 20.9-60.8 17.4-98.5-3.8-41.4-16.5-69.5-43.9-97.1-16.7-16.8-30.9-26.4-61.5-41.6-27.1-13.6-40-18.5-108-41.3-65.5-22-78.7-27.6-97-41.3-23.3-17.4-32.7-35.7-34.2-66.7-1.2-24.6 4.3-45.7 16.4-63.6 11.9-17.5 35-33 58.6-39.4 10.3-2.8 29-5 42.3-5 40.2 0 71.1 11.1 94.3 33.9 18.4 18.2 31 46.4 32.3 72.6l.3 5 39.8.3c35.6.2 39.8.1 40.4-1.4.8-2.2-1.4-23.1-3.8-34.9-6.2-30.5-22.8-61.8-44.6-83.8-30.6-30.9-67-48.1-117.3-55.3-10-1.4-50-2.7-58.5-1.8zM769 568.1c-46.4 5-96.7 27.6-132.7 59.6-4.6 4.1-8.6 7.3-8.7 7.2-.3-.4-5.6-53.1-5.6-55.7 0-.9-7.7-1.2-35-1.2h-35v655h77l.2-131.2.3-131.2 7 6.3c3.9 3.5 12.4 10.5 18.9 15.5 6.5 5 14.4 11.1 17.5 13.4 36.1 28 92.8 41.5 148.9 35.7 68.5-7.2 123.8-40.3 160-95.8 10.9-16.7 24.8-48.3 33.1-75.2 17.6-57.4 12-120.6-15.5-174.5-13.6-26.6-27.2-46.4-43.6-63.5-18.7-19.4-35.5-31.8-59.3-43.5-21.2-10.5-37-15.4-63.1-19.5-11.8-1.9-51.7-2.8-64.4-1.4zm46.5 67.9c29.8 5.1 56.6 19 77.9 40.5 26.8 26.8 42.5 60.7 47.3 101.5 2.1 18.2 1.3 48.7-1.6 65.1-10.4 57.6-43.9 101.6-93.2 121.9-15.9 6.6-39.6 11-59.2 11-53.2 0-98.1-23.3-126.4-65.8-20.7-30.9-30.5-69.4-29-113.7 1.7-49.9 17.5-89.4 48.2-120 21.7-21.6 47.6-35.2 77.1-40.4 15.6-2.8 43-2.8 58.9-.1zM1865.5 568c-75.2 6.9-138.3 49.7-171.7 116.5-13.4 26.8-21.9 57.6-24.9 90.9-1.5 15.9-.6 59.8 1.5 73.4 8.8 58 31.9 103.3 70.5 138.6 43.5 39.7 103.5 59.2 168 54.6 55.2-3.9 93.8-20.2 129-54.4 19.3-18.8 31.4-35.6 42.6-58.8 4.9-10.2 12.5-30 12.5-32.5 0-.2-17-.2-37.7-.1l-37.7.3-5.5 11c-9.3 18.3-19.9 31.6-34.5 42.9-17.2 13.4-34.5 20.9-58 25.3-14.3 2.6-43 2.3-56.6-.6-29.8-6.4-54-19.1-73.1-38.4-20.8-21.1-33.8-44.9-40.9-74.8-2.5-10.8-5-27.7-5-34.7V822h360.8l.7-24.8c.9-28-.1-43.9-4-62.7-18.9-92.4-90.8-157.8-183-166.5-12.2-1.1-40.6-1.1-53 0zm58 67c25.3 5 49.1 17.3 67.6 34.7 22 20.8 35.1 50.1 38.4 86l.7 7.3h-285.4l.7-7.5c2.1-22.7 12.4-49.6 26-68 9.8-13.2 31.1-30.7 47.8-39.2 12.7-6.4 34.8-13.2 49.8-15.3 11.7-1.6 42.1-.5 54.4 2zM2297.6 568.6c-43.3 5.7-75.9 20.9-100 46.5-16.4 17.4-26.2 36.2-31.3 59.9-1.4 6.5-1.8 12.9-1.8 27 0 16.1.3 19.7 2.3 27.5 4.4 16.9 13.4 32 25.8 43.4 29.4 27 66 42 142.9 58.6 32.8 7.1 67 18.4 78 25.8 15.2 10.3 22.5 26.2 22.7 49.2.1 19.9-5 32.4-19.2 46.6-9.4 9.4-17.1 14.3-29 18.3-27 9-68.3 8.2-96.9-1.8-31.6-11-59.2-40.4-67.9-72.1l-1.9-7-39.3-.3-39.2-.2.6 4.7c3.3 23.3 13.1 49 26.1 68.8 6.2 9.4 20.3 25 29.5 32.7 21.3 17.9 49.6 32 78.5 39.2 40.2 9.9 92.9 9.5 130-1 49.9-14.1 87.2-46.9 101.3-88.9 4.7-13.9 5.7-21.9 5.6-44.5 0-19.6-.2-22.5-2.7-32.8-3-13.1-9.2-26.8-16.1-35.9-10.4-13.8-29.8-28.8-48.6-37.7-17.7-8.4-54.9-20-90.4-28.2-33.8-7.8-46-11.3-63.4-18-37.7-14.6-51.4-29-51.3-54.2 0-27.3 16.9-47.9 46.6-57.2 21.2-6.7 56.4-6.6 78 .1 30.1 9.3 50.7 31.6 56.8 61.6l1.4 6.8 38.2.3 38.1.2-.5-2.2c-.2-1.3-1.1-6.4-1.9-11.3-6.8-40.8-28.4-74.7-62-96.7-20.5-13.5-43.1-21.9-70.7-26.3-14.5-2.4-53.6-2.9-68.3-.9zM1095 809.5V1032h77V587h-77v222.5zM1266 809.5V1032h76l.2-117.7.3-117.7 103.8 117.7 103.8 117.7h98.1l-8-8.8c-4.3-4.8-55.5-60.9-113.6-124.7L1421 782.6l24.3-24.6c13.4-13.5 49.9-50.6 81.2-82.5 31.3-31.9 63.7-64.9 71.9-73.3l15.1-15.2H1519.2l-87.8 90.5c-48.4 49.8-88.2 90.5-88.6 90.5-.5 0-.8-40.7-.8-90.5V587h-76v222.5z"/>
</svg>
