<?xml version="1.0" standalone="no"?><svg xmlns="http://www.w3.org/2000/svg" width="59" height="57" version="1.0" viewBox="0 0 1478 1447" fill="#fff">
<path d="M732.5 22c-12.5 1.5-21.9 5.4-31.1 12.8-17.3 14-24.5 31.8-22.4 55.5 1.3 14.1 9.6 28.8 22 39 4.1 3.4 14.2 8.9 21.3 11.6l2.7 1.1v82.2c0 113.3.9 281.3 1.5 292.8 1 18.9 8.5 67.8 11 71.6 3.4 5.2 7.7 1.9 9.4-7.1 4.3-22.6 8.1-52 8.8-67 .3-7.2.8-94 1.1-193l.7-179.9 4.5-1.6c12.4-4.6 20.7-10.5 29-20.9 4.7-5.9 6.4-8.9 10-18 1.9-4.7 2.2-7.4 2.2-19.1 0-14.3-.6-17.1-6.5-28.5-4.8-9.5-17.2-21.1-27.7-26.1-10.3-4.9-24.2-7-36.5-5.4zM496.5 80c-12.2 1.5-25.6 8.9-35.1 19.4-5.7 6.2-7.9 9.8-12.2 19.6-2.2 4.9-2.5 7-2.6 20-.1 13.7 0 14.9 2.7 21.4 7.3 17.8 20.7 30.8 38.2 36.8 6.8 2.3 9.6 2.7 19.2 2.8 9.3 0 12.6-.4 18.8-2.5 4.3-1.4 8.3-2.1 9.3-1.7 1.8.7 14.9 11.9 33.5 28.6 16 14.4 22.9 24.6 26.2 38.8 5.1 22.2-1.1 41.2-18.6 57.2-14.8 13.5-29.6 28.9-34 35.4-7.5 11.2-10.3 23.5-8 35.1 2.3 11.9 6.4 18.8 25.5 43.5 7.2 9.3 18.1 23.5 24.3 31.5 11.5 15 19.7 25.6 33.8 43.5 4.4 5.6 13 16.7 19 24.6 17.1 22.4 29.4 38.1 32.8 42.4 2.7 3.2 7.4 9.7 16.2 22.3 3.9 5.6 6.3 2 10.5-15 2.9-12.2 3-13 1.5-15.4-1.4-2.1-19.2-24.7-29.8-37.7-1.8-2.2-7.9-10.1-13.7-17.7-5.8-7.5-18.9-24.5-29.1-37.6-10.2-13.1-23-29.7-28.4-36.8-5.5-7.2-14.6-18.8-20.3-25.9-16.9-21.1-19.2-28.2-13.2-40.3 3-6 12.6-16 29.6-31 15.8-13.8 23.7-26.7 28-45.3 3.9-17.1 2.8-31.9-3.8-50.5-5.7-16.1-19.2-32.5-46.7-56.5-7.2-6.3-13.1-11.9-13.1-12.5 0-.5 1.2-3 2.6-5.5 7-12.1 9.7-26.9 7.6-42-2.8-19.8-19.4-39.1-40.2-46.7-6.3-2.4-21.3-3.5-30.5-2.3zM965 80c-12.5 1.5-22.6 6.8-33.6 17.7-12.8 12.7-18.5 28.9-16.9 47.8.7 8.9 3.9 19 7.9 25.3 1.4 2.3 2.6 4.8 2.6 5.5 0 .8-2.6 3.6-5.7 6.3-31.2 26.6-47.3 44.9-53.3 60.7-6.2 16.1-8.3 34.1-5.6 47.7 5.2 25.6 9.8 32.5 42.3 62.8 10.9 10.2 13.8 13.4 16.4 18.8 6.1 12.4 4 18.3-15.3 42.5-7.1 9-17.5 22.5-23.1 29.9-9.8 13.1-18.5 24.3-25 32.4-3.4 4.3-10 12.7-24.2 31.1-14.1 18.3-24.1 31.1-35.2 44.8-14.8 18.3-13.8 15.9-11.2 26.4 4.1 16.2 5 19.1 6.4 20.3 2.3 1.9 4.1.6 8.2-5.7 4.3-6.6 6.3-9.3 22.4-29.9 6.3-8.2 17.3-22.5 24.5-31.8 7.1-9.2 16.6-21.5 21.2-27.2 4.5-5.7 14.2-18.1 21.4-27.6 7.2-9.5 14.3-18.7 15.7-20.4 1.4-1.7 4.3-5.3 6.3-8s8-10.4 13.3-17.2c11.8-15.1 17.4-23.7 21.1-32.2 2.3-5.5 2.8-7.9 2.8-16 .2-20-6.6-30.8-36.8-58.5-13.1-12-19.2-19.8-22.4-28.8-2.3-6.3-2.7-8.7-2.7-19.7 0-11.1.3-13.4 2.7-19.9 5-13.8 13.1-23.2 40.1-46.6 19.4-16.9 17.8-16.1 27.1-13 6.4 2.1 9.6 2.5 18.9 2.5 9.6-.1 12.4-.5 19.2-2.8 17.3-5.9 30.6-18.6 37.9-36 3.2-7.6 4.4-21.6 2.8-32.8-2.7-19-18.6-37.8-38.6-45.5-8-3.1-20.7-4.2-31.6-2.9zM286.7 216c-3.2.5-9.7 2.8-14.5 5.2-17.7 8.6-31.2 26.7-33.4 44.8-1.1 9.9-.1 23.4 2.3 28.9 1 2.4 1.9 4.8 1.9 5.3s2.1 4 4.6 7.8c17.7 27 51.2 35.7 80.5 20.9 3.1-1.5 8.1-5.1 11.1-7.8 3.1-2.8 6.4-5.1 7.4-5.1 1.8 0 17.7 5 38.4 12.1 17.6 6 30.8 12.8 37.6 19.4 3.4 3.3 10.8 13.3 12.9 17.5 3.1 6.2 6.5 19.9 6.5 26.5 0 7.9-2.4 15.4-11.5 36-9.4 21.4-11.6 27.6-13.9 38.9-1.5 7.1-1.5 8.6-.1 16.8 1.8 10.8 5 17.3 11.9 24.6 6.9 7.4 14.3 12.2 47.1 30.7 15.4 8.7 34.1 19.3 41.5 23.5 13.5 7.7 26.7 15.1 37 20.7 3 1.7 10 5.6 15.5 8.8 15.5 8.9 17.9 10.2 35 19.8 8.8 5 19.4 10.9 23.5 13.3 4.1 2.3 7.8 3.9 8.2 3.5.8-.7-3.7-29.4-5.1-32.6-.5-1.1-3.5-3.3-6.7-4.9-3.3-1.6-8.4-4.4-11.4-6.1-7.6-4.4-36.2-20.5-43.5-24.5-11.5-6.3-30.2-16.8-58-32.7-15.4-8.7-33.6-19-40.5-22.7-14.8-8-21-12.6-24.8-18.1-2.4-3.5-2.7-4.9-2.7-12 0-4.5.6-9.5 1.4-11.5 2.8-6.9 11.1-25.6 14.4-32.6 5.7-11.5 8.8-22.7 9.4-33.6 1.2-20-4.7-40-16.3-55.8-15.6-21.2-30.3-30.2-72.3-44.5-10.7-3.6-19.9-7.1-20.3-7.8-.5-.6-.6-2.3-.3-3.6.9-3.6.7-15.9-.4-22.1-3.4-19.8-17.8-36.1-39.7-44.9-6.1-2.4-23.5-3.5-32.7-2.1zM1171 216c-14.7 2-31.6 13.7-41.1 28.5-5.7 8.8-7.2 14.9-7.4 30.3-.2 7.9-.5 14.6-.8 14.8-.2.3-10.1 3.8-21.8 7.8-34.9 11.9-46.5 18-59.9 31.5-13.6 13.7-22.4 30.3-25.4 47.6-3.7 21.1-1.2 34.4 11.2 60.6 11.4 24 12.6 27.6 12.7 36.9 0 7.6-.3 8.9-2.7 12.7-4.2 6.4-9.2 9.8-37.3 24.8-4.9 2.7-16 8.9-24.5 13.8s-17.5 10.1-20 11.5c-2.5 1.4-12.7 7.2-22.8 12.9-10 5.6-18.4 10.3-18.7 10.3-.2 0-8 4.3-17.2 9.6-24.8 14.2-31.2 17.7-37.6 21-3.6 1.8-6.2 3.8-6.8 5.3-1.2 2.9-6 32.3-5.4 32.9.2.2 6.1-2.9 13.2-6.9 7-4 14.6-8.2 16.8-9.4 2.2-1.2 7.4-4.1 11.5-6.5 8.9-5 9.7-5.5 31-17.5 9.1-5.1 18.5-10.4 21-11.8 2.5-1.4 7.2-4 10.5-5.8 3.3-1.7 11.2-6.2 17.5-9.9 6.3-3.7 23.2-13.3 37.5-21.3 33-18.5 42-24.3 49.2-32.1 7.3-7.8 10-13.2 11.9-24.3 1.4-8 1.4-9.5-.1-17-2.1-11-4.9-18.7-13.9-38.8-7.9-17.4-11.6-28.9-11.6-35.7 0-5.9 2.9-18.7 5.5-24.5 8.2-18 23.3-29.5 51.5-39.2 21-7.2 36.7-12.1 38.4-12.1 1 0 4.3 2.2 7.3 5 14.8 13.5 38.8 18.7 57.6 12.6 10.7-3.5 18.3-8.1 25.8-15.6 7.7-7.6 10.9-12.4 14.6-21.7 2.3-6.1 2.6-8.2 2.7-20.3.1-12.1-.2-14.2-2.4-20-3.9-10.3-6.9-15-15-23-14.7-14.7-32-20.1-55-17zM125.9 436c-2.6.4-8.6 2.7-13.4 5-14.5 7.1-25.6 19.6-30.9 35-2.2 6.3-2.6 9-2.6 19.6 0 11.1.3 13 2.9 19.7 7 18.3 20.9 31.6 39.5 38 9.3 3.1 27.6 3.1 37-.2 17.5-6 30.1-17.5 38-34.7 1.9-4.1 3.8-7.4 4.3-7.4.4 0 3.9-.5 7.6-1 21.7-3.2 44.8-5.2 52.4-4.6 21.1 1.7 38.6 11.6 49.3 27.9 7.3 11.1 8.1 15.5 9 46.7 1.2 39.1 3.8 48.6 16.6 61.6 11 11.2 22.9 14.6 60.4 17.4 16.6 1.2 45.7 3.5 70.5 5.6 24.6 2 27.3 2.2 45.5 3.4 9.1.6 20.1 1.5 24.5 2 4.4.5 18.4 1.7 31 2.5 12.7.8 27.2 2.2 32.4 3 9.7 1.6 12.1 1.2 12.1-2.3 0-1.8-13.9-22.9-16.6-25.3-2-1.8-3.8-2-34.9-3.8-9.9-.6-22.8-1.6-28.6-2.1-5.9-.6-23-1.9-38-3-41.2-2.9-66.1-4.9-68.9-5.5-1.4-.3-13.5-1.2-26.9-2-32.5-2-39.8-4-45.3-12.2-5.2-7.7-5.7-10.9-6.2-39.8-.6-35.7-2.6-44.6-13.3-60.7-13.1-19.8-36.4-35.4-58.8-39.4-13.7-2.4-39.7-1.6-69.1 2.2l-5.2.7-1.2-3.9c-2.7-8.6-8.6-18-15.5-25-13-13.2-22.7-17.4-41-18-6.6-.1-14.1.1-16.6.6zM1328.6 436.1c-2.7.4-8.6 2.6-13.3 4.8-14.1 6.8-27.5 22.2-31.7 36.4-1.2 4-1.4 4.2-5.2 4.1-2.1 0-10.9-.8-19.4-1.7-19-2.1-40.8-2.2-51.5-.3-26.2 4.7-51.6 23.8-64.1 48.5-5.9 11.7-7.5 21.7-7.9 51.9-.3 24.6-.5 26.9-2.6 32.6-1.5 3.9-3.8 7.5-6.5 10.1-5.7 5.6-13.1 7.2-41.9 9-12.6.8-27 1.9-32 2.5-9.2 1-16 1.6-63.5 4.9-15.1 1.1-32.4 2.5-38.5 3.1-6 .6-18.9 1.5-28.5 2-28.9 1.7-33.4 2.1-35.2 3.7-2.6 2.3-16.8 23.8-16.8 25.5 0 3.6 2.2 3.8 16.6 1.9 7.6-1.1 19.8-2.2 26.9-2.6 7.2-.3 22-1.5 33-2.5s25-2.2 31-2.5c6.1-.3 15.7-1 21.5-1.5 13.6-1.3 55.1-4.8 66-5.5 31.7-2.1 50.4-4.1 58.4-6.1 19.4-5 32.4-18.6 36.7-38.6 1.6-7.2 2.3-15.3 2.9-36.3.7-23.8 1.1-27.8 3-33.5 3.1-9.3 6.5-14.6 14.5-22.5 7.6-7.7 19-14.1 29.5-16.6 10.2-2.5 38.9-.9 68.2 3.7 3.6.5 4 1.1 8.8 10.2 9.2 17.6 21 27.5 39.7 33.2 12.5 3.8 31 1.9 43.5-4.6 13.4-6.9 24.7-19.9 30.3-34.8 2.2-5.8 2.5-8.3 2.5-18.9 0-10.4-.4-13.4-2.4-19.3-3.5-10.3-7.2-16.1-15.1-23.9-8-8.1-19.9-14.6-29.9-16.4-6.8-1.2-19.7-1.3-27 0zM735.9 609.4c-.3.3-5.2 1.1-10.8 1.6-15.8 1.5-32.3 7.3-46.5 16.5-7.4 4.7-25.1 21.8-31.7 30.5-15 19.8-23.8 50.6-20.9 73.2 1.9 14.8 4.8 25.6 10 36.3 11.7 24.5 37.1 49.1 60 58.3 13.8 5.5 29.7 8.6 44.5 8.6 9.4.1 26-2.2 33.8-4.5 18.1-5.5 31.2-13.3 45.5-27.3 13.4-13.1 19.1-20.6 25.7-34.1 14.5-29.5 14.7-62.2.6-91.9-6-12.7-14-23.4-26.8-35.8-17.8-17.3-38-27.2-61.4-29.9-14.5-1.7-21.3-2.1-22-1.5zM69.8 662.5c-8.9 3.1-14.9 6.8-22 13.3-13.1 12.1-18.5 23.9-19.5 42.3-1.1 21.1 4.9 36.5 19.6 50.1C55 774.8 62 778.9 71.1 782c5.9 1.9 8.3 2.2 20 1.8 11.9-.4 14.2-.7 20.3-3.3 11.6-4.8 20.7-11.7 27.5-21 3.2-4.4 5-7.6 9.5-17.5l1.2-2.5 27.4-.6c15.1-.3 92.3-.6 171.5-.7 134.7-.2 179.6-1 192-3.2 2.8-.5 9.1-1.4 14-2 5-.6 10.4-1.5 12-2 1.7-.5 6.8-1.6 11.5-2.4 12.1-2.2 21.5-5 21.5-6.6 0-1.6-9.4-4.4-21.5-6.6-4.7-.8-9.8-1.9-11.5-2.4-3.8-1.1-24.1-4.1-36-5.2-4.9-.4-92.5-1.2-194.5-1.7l-185.4-.9-1.8-2.2c-1-1.2-1.8-2.9-1.8-3.7 0-2.6-6.4-13.5-10.9-18.6-7.7-8.6-17.7-15-28.8-18.7-9.4-3-28.3-2.8-37.5.5zM1371.1 663.4c-13.9 5.7-23.3 13.4-30.6 25.1-2.3 3.8-4.8 8.7-5.4 10.7-.7 2-1.8 4.2-2.6 4.8-1.1.9-47.7 1.4-186.7 2.1-101.9.5-189.3 1.3-194.3 1.8-12.6 1.2-32.4 4-36 5.1-1.6.5-5.9 1.4-9.5 2-6.7 1.2-21.9 4.9-23.2 5.6-3.2 2 6.6 5.5 23.2 8.4 3.6.6 7.9 1.5 9.5 2 3.8 1.2 24.2 4 36.5 5.1 14.7 1.3 74.6 1.9 233.2 2.3 113.8.2 146 .6 147.2 1.5.8.7 2 2.9 2.7 4.9 1.7 5.6 9.2 17.2 14.1 21.8 6.5 6.3 14 10.9 23 14.4 8.1 3.1 8.4 3.2 22.2 2.8 14.8-.4 14.9-.4 27.5-6.6 6.2-3.1 18.2-13.8 21.9-19.6 10.5-16.5 13.1-35.4 7.6-55.2-3.8-13.4-15.4-27.8-28.5-35.1-10.3-5.8-16.6-7.3-30.7-7.3-12.1 0-13.1.2-21.1 3.4zM598.5 768.6c-4.4.7-17.9 2-30 2.8-12.1.9-26.5 2-32 2.6-5.5.6-19.7 1.7-31.5 2.5-22.5 1.6-34.2 2.5-62.5 5-9.3.8-26.7 2.1-38.5 3-37.2 2.7-46.6 4.2-56.9 9.5-8.1 4.1-13.4 9.1-18.6 17.4-7.1 11.4-8.4 19.1-9.4 53.1-.8 26-1 28.5-3.3 34.5-4.9 13.4-15.4 25.3-28.4 32.2-15 8-26.1 9-57.9 5.4-32.5-3.8-28.8-2.4-33.6-12-8.9-17.6-20.1-27.7-37.5-33.7-5.8-2-8.8-2.4-18.9-2.4-10.3 0-13 .4-19.2 2.6-10.2 3.7-17.6 8.4-24.7 16-7.1 7.4-11.4 14.5-14.5 23.7-3.2 9.5-3 27.2.5 37.2 5.3 15.2 16.6 27.9 31 35 10.3 5 18.3 6.5 31.9 5.7 16.5-.9 26.7-5.6 39-18.1 7.1-7.1 12.7-16.1 15-24 1.5-4.9.6-4.8 25.3-2.3 20 2.1 40.1 2.2 50.7.2 23.2-4.2 45.2-18.9 58.8-39.3 10.7-16 12.6-25 13.6-62.7.8-31.6 1.3-33.8 9-41.2 5.6-5.5 13.1-7 42.9-8.8 13.4-.8 25.3-1.7 26.5-2 2.1-.5 20-2 61.7-5 11.3-.8 28.6-2.2 38.5-3 9.9-.9 25.9-2 35.5-2.5 28.5-1.7 32.3-2.1 34.4-3.9 2.7-2.3 16.6-23.5 16.6-25.2 0-2-2-3.9-3.9-3.8-.9.1-5.2.8-9.6 1.5zM871.3 768.1c-.7.7-1.3 1.9-1.3 2.7 0 1.7 14 23 16.7 25.3 2 1.8 7.2 2.4 34.8 3.9 9.4.5 25.1 1.6 35 2.5 9.9.8 27.5 2.2 39 3 38.7 2.8 59 4.4 62 5 1.6.3 13.6 1.2 26.7 2 35 2.2 41.8 4.5 47.4 16.2 2.3 4.9 2.9 7.8 3.6 18.3.5 6.9.7 15.6.4 19.5-.7 9.2.8 28.4 2.9 36.5 7.6 29.3 37.3 55.9 69 61.6 10.6 1.9 31.3 1.8 51-.3 24.4-2.5 23.5-2.6 25 2.3 2.3 7.8 8 16.9 15 24 12.2 12.4 22.5 17.2 39 18.1 19.9 1.1 35-4.2 48-17.1 7.9-7.9 11.6-13.7 15.1-24 2-5.9 2.4-8.9 2.4-19.2 0-10.4-.3-13.1-2.4-18.6-3.9-10.4-6.4-14.4-13.6-22.1-11.9-12.7-25.1-18.7-42.8-19.5-9.1-.4-11.1-.1-18.9 2.3-18.1 5.8-29.1 15.2-38.3 32.7-4.8 9.1-5.2 9.7-8.8 10.2-32.8 5.2-59.8 6.3-71.3 2.9-18.9-5.6-34.9-20.6-40.9-38.3-1.9-5.7-2.3-9.7-3-34-1.1-35.4-2.5-42.5-10.8-54.7-6.5-9.5-13.2-14.6-23.9-18.2-10-3.4-14-3.8-75.8-8.7-11-.8-27.9-2.2-37.5-2.9-9.6-.8-26.9-2.2-38.5-3-11.5-.8-27.5-2.2-35.5-3-8-.7-20.1-1.7-27-2-11.2-.6-32-2.8-38.9-4.1-1.4-.3-3.2 0-3.8.7zM632.5 816.9c-2.7 1.6-11.5 6.6-26 14.6-10.8 6.1-18.4 10.4-29 16.4-13.8 8-15.1 8.7-37.5 21.1-10.2 5.6-22.5 12.6-27.5 15.5-4.9 2.9-21.6 12.3-37 21-33.4 18.8-39.6 22.9-46.8 30.4-7.2 7.5-10.6 14.4-12.3 25-2.3 14.3.4 25.3 14.1 55.6 11.6 25.7 12.9 32 10 47.1-1.8 9.6-5.8 18.1-12 25.9-11.6 14.4-20.9 19.2-66.2 33.9-15.1 4.9-17.7 5.3-19 3.3-1.5-2.4-10.7-9.4-15.8-11.9-14.4-7.3-31.8-9-45.8-4.4-11.5 3.8-20.3 9.1-27.3 16.8-4.4 4.8-10.7 14.1-11.7 17.3-.3 1.1-1.3 4-2.3 6.5-1.3 3.4-1.7 7.8-1.7 17.5-.1 15.3 1.6 21.4 9 32.7 17.4 26.6 51.9 35.4 80.8 20.5 7.3-3.7 17.2-12.6 21.8-19.5 7.5-11.3 9-16.4 9.3-33.1.1-7.8.4-14.5.7-14.7.2-.2 9.1-3.3 19.8-7 41.6-14.1 55.9-22.7 70.9-42.6 12.9-17.1 19-37.2 17.7-58.2-.7-10.9-3.8-21.6-10.9-36.5-13.2-28-14.3-30.9-14.3-40.6.1-6.6.5-8.7 2.3-11.7 3.1-4.9 10.5-10.4 24.2-17.9 10.7-5.8 76.7-42.9 80-45 .8-.5 4-2.2 7-3.9 3-1.6 6.6-3.6 8-4.4 1.4-.8 11.1-6.3 21.5-12.2 10.5-5.8 21.9-12.3 25.5-14.3 3.6-2.1 9.1-5.1 12.4-6.7 3.2-1.6 6.2-3.8 6.7-4.9 1.4-3.1 5.9-31.9 5.1-32.7-.4-.4-2.1.1-3.7 1.1zM845.6 815.8c-.4.7 3.4 26 4.9 31.9.3 1.5 3.4 3.7 9.7 7.1 5.1 2.7 17.8 9.7 28.1 15.6 10.4 5.8 21.6 12.1 25 14 5.2 2.8 20.5 11.4 40.7 22.8 2.5 1.4 11.7 6.7 20.5 11.8 8.8 5 19.8 11.2 24.5 13.7 27.1 14.6 32.7 18.3 36.9 24.8 2.3 3.5 2.6 5 2.5 12.5 0 9.3-1.8 14.5-12.5 36.9-12.4 25.7-15 39.6-11.4 60.1 2.5 14.6 7.7 26.2 17.2 38.7 14.4 19.1 28 27.2 68.2 40.9 11.7 4 21.6 7.5 21.8 7.8.3.3.6 6.9.7 14.8.2 12.6.6 15.1 2.8 20.8 6 15.4 17.9 27.4 34 34.3 6.5 2.8 10.2 3.7 17.3 4.2 20.5 1.6 36-3.9 49.5-17.5 8.1-8 11.2-12.7 15-23 2.1-5.7 2.4-8.2 2.5-19.5 0-11.9-.3-13.7-2.9-20.7-1.6-4.3-3.5-8.3-4.2-8.9-.8-.6-1.4-1.8-1.4-2.5 0-2.4-16.2-17.8-21.9-20.7-19.6-10.3-40.5-10.4-59.5-.3-3.3 1.7-8.3 5.2-11.2 7.8-2.8 2.7-5.9 4.8-6.8 4.8-1.8 0-19-5.4-39.8-12.5-24.5-8.4-34.4-15-45.2-29.8-5.7-8-10.6-23.3-10.6-33.5 0-6.8 3.7-18.3 11.6-35.7 9.2-20.6 11.7-27.4 13.9-38.5 1.5-7.8 1.5-9.2.1-17.3-2.4-13.9-8.5-23.3-21-32.7-4.7-3.5-21.8-13.4-74.6-43.2-10.7-6.1-22.4-12.7-26-14.8-3.6-2-10.1-5.7-14.5-8-4.4-2.4-9.3-5.1-11-6-1.6-1-11.7-6.8-22.4-12.9-10.6-6.1-19.5-11.1-19.6-11.1-.2 0-4.5-2.4-9.7-5.3-18.6-10.7-20.7-11.7-21.2-10.9zM685.9 845.2c-1.1 1.3-4.6 6-7.7 10.4-3.1 4.5-7.1 9.9-8.8 12-4 4.9-17.3 22.1-34.2 44.2-7.3 9.5-19.2 24.8-26.5 34-7.3 9.3-18.7 24-25.4 32.8-6.7 8.7-17.4 22.6-23.9 30.9-18.1 23.2-23.2 31.8-25.5 43.6-1.3 6.7-.7 14.8 1.6 22.6 2.4 8.2 10.3 18.8 23.6 31.8 6.8 6.6 15.3 14.9 18.9 18.5 14.1 13.8 17.3 21.3 17.4 40.5.1 11.8-.2 13.7-2.6 20.4-3.5 9.7-8.4 16.7-18.3 26.6-6.7 6.8-29.7 27.2-38 33.9-2.3 1.8-2.4 1.8-10.5-.8-6.8-2.2-9.9-2.6-19.3-2.6-9.6.1-12.4.5-19.2 2.8-17.2 5.9-30.4 18.5-38.1 36.2-2.6 6.1-2.8 7.3-2.8 21 0 13.2.3 15.1 2.6 21.1 3.7 9.4 7.1 14.4 15.2 22.4 13.2 13 28.6 18.4 48.6 16.9 14.9-1.2 26.2-6.5 37.6-18 13-12.9 18.4-28.1 17-47.7-.7-9.3-3.3-17.6-8-25.7-1.4-2.5-2.6-5-2.6-5.6 0-.5 5.7-5.9 12.6-12 18.4-15.8 35-33.5 40.5-43 7.7-13.3 11.7-26.8 12.6-42.8.4-8.7.1-11.7-2.2-21.6-4.3-18.7-12.1-31.3-27.8-45.2-18.1-16.1-26.7-25.1-29.7-31.1-6.1-12.1-3.7-19.2 13.3-40.4 5.7-7.1 15.5-19.7 21.7-27.9 6.3-8.2 16.8-21.9 23.4-30.4 18-23.1 19.1-24.6 31.5-40.6 6.3-8.2 15.8-20.2 21-26.7 12.3-15.2 19.4-24.3 22.7-28.8l2.5-3.7-3.1-12.8c-3.1-12.6-5-17.4-7.1-17.4-.5 0-1.9 1-3 2.2zM791.2 844.3c-.7.8-2.8 7.6-4.7 15.2l-3.6 13.9 2.2 3c1.3 1.7 6.6 8.5 11.8 15 14.2 17.7 16.5 20.6 29.6 37.6 6.6 8.6 13.9 18.1 16.3 21.1 2.3 3 6.8 8.7 10 12.7 3.1 4 6.9 8.8 8.3 10.5 1.4 1.8 9.1 11.7 16.9 22.2 7.9 10.4 19 24.7 24.6 31.7 16.7 20.7 19.4 25.4 19.4 33.8 0 8.8-4.4 15.3-19.8 29.7-27.2 25.5-33 32.5-37.7 46.6-7.3 21.8-7.1 39 .7 61.2 6 17.1 21.2 34.8 54.1 62.9 3.1 2.7 5.7 5.6 5.7 6.6 0 .9-1.3 3.6-2.9 6.1-4 6-6.8 14.9-7.6 23.9-1.7 19.4 4 35.6 17.3 48.6 8.3 8.2 12.7 11.1 22.8 14.9 6.2 2.4 8.3 2.7 20.4 2.8 12.7 0 13.9-.1 21.1-3 9.8-3.8 17.6-9.1 24-16.1 6.4-7 9.1-11.3 12.6-19.9 2.6-6.4 2.8-7.7 2.7-21.3 0-13.3-.2-15-2.6-20.7-7.4-17.6-21-30.6-38.3-36.5-6.8-2.3-9.6-2.7-19.2-2.8-9.3 0-12.5.4-19.2 2.6-9.5 3-6.3 4.6-26.7-13.1-17.7-15.3-29-26.5-33.7-33.6-8.3-12.3-11.8-30.1-8.6-44.4 1-4.4 2.4-9.6 3.3-11.6 2.6-6.2 10-15.1 21.2-25.4 22.8-21.1 31.6-31.9 35.1-43.3 2.8-8.9 2.4-23.1-.8-30.7-4.1-9.6-13.3-22.9-34.4-49.5-9.2-11.6-16.9-21.5-25.8-33.3-11.5-15.2-15.6-20.4-18-23.2-1-1.1-4.3-5.2-7.2-9-3-3.9-8-10.4-11.2-14.5-3.2-4.2-9.4-12.3-13.7-18-4.4-5.7-11.5-14.9-15.9-20.5-10.5-13.4-17.7-23-21.3-28.5-3.2-4.8-5.4-5.9-7.2-3.7zM738.1 855.1c-2.3 2.5-2.2 2.2-5.5 22.9-3.6 22.8-5.5 38.3-6.1 49-.6 11.4-1.5 180.7-1.5 293.8v81.2l-2.7 1.1c-25.2 9.6-41.4 28.7-43.3 51.1-.9 9.5.2 21.8 2.4 27.7 7 19 23.1 33.5 43 38.7 7.5 2 24.1 2.2 31.6.5 18.4-4.2 33.7-16.6 42.2-34 3.4-6.8 4.2-9.9 4.9-16.7 2-22.2-3.2-37.3-17.8-51.7-8.1-7.9-11.4-10-25.5-15.6l-2.8-1.1-.1-120.2c-.1-146.4-1.3-265.2-2.8-272.8-.6-3-1.5-9.1-2-13.5s-2.1-14.6-3.4-22.6c-3.2-18.7-5.7-23-10.6-17.8z"/>
</svg>
